<svg version="1.1" id="Layer_1" xmlns="http://www.w3.org/2000/svg" x="0" y="0" viewBox="0 0 512 512" xml:space="preserve"><style>.st0{fill:#494946}</style><path class="st0" d="M256 0C114.5 0 0 114.5 0 256s114.5 256 256 256 256-114.5 256-256S397.5 0 256 0zm0 477.9c-122.3 0-221.9-99.5-221.9-221.9S133.7 34.1 256 34.1 477.9 133.7 477.9 256 378.3 477.9 256 477.9z"/><path class="st0" d="M257.4 209.8c-10.2-.9-18.5 7.4-18.5 17.6v142.8c0 10.2 8.4 18.4 18.5 17.6 8.7-.7 15.6-8.1 15.6-17v-144c.1-8.9-6.8-16.2-15.6-17zm-1.4-79.7c-14.1 0-25.6 11.5-25.6 25.6s11.5 25.6 25.6 25.6 25.6-11.5 25.6-25.6-11.5-25.6-25.6-25.6z"/></svg>