<svg xmlns="http://www.w3.org/2000/svg" viewBox="0 0 512 512"><path d="M402.3 292.6c-36.3 0-68.3 17.9-88.3 45.1l-99.8-49.9c3.1-10.1 5.2-20.7 5.2-31.8 0-11.1-2.2-21.7-5.2-31.8l99.8-49.9c20 27.2 52 45.1 88.3 45.1 60.5 0 109.7-49.2 109.7-109.7S462.8 0 402.3 0 292.6 49.2 292.6 109.7c0 11.1 2.2 21.7 5.3 31.8L198 191.4c-20-27.2-52-45.1-88.3-45.1C49.2 146.3 0 195.5 0 256s49.2 109.7 109.7 109.7c36.3 0 68.3-17.9 88.3-45.1l99.8 49.9c-3.1 10.1-5.2 20.7-5.2 31.8 0 60.5 49.2 109.7 109.7 109.7S512 462.8 512 402.3s-49.2-109.7-109.7-109.7zm0-256c40.3 0 73.1 32.8 73.1 73.1s-32.8 73.1-73.1 73.1-73.1-32.8-73.1-73.1 32.7-73.1 73.1-73.1zM109.7 329.1c-40.3 0-73.1-32.8-73.1-73.1s32.8-73.1 73.1-73.1 73.1 32.8 73.1 73.1-32.7 73.1-73.1 73.1zm292.6 146.3c-40.3 0-73.1-32.8-73.1-73.1s32.8-73.1 73.1-73.1 73.1 32.8 73.1 73.1-32.8 73.1-73.1 73.1z" fill="#bea67c"/></svg>