<?xml version="1.0" encoding="utf-8"?>
<!-- Generator: Adobe Illustrator 23.0.2, SVG Export Plug-In . SVG Version: 6.00 Build 0)  -->
<svg version="1.1" id="Layer_1" xmlns="http://www.w3.org/2000/svg" xmlns:xlink="http://www.w3.org/1999/xlink" x="0px" y="0px"
	 viewBox="0 0 512 512" style="enable-background:new 0 0 512 512;" xml:space="preserve">
<style type="text/css">
	.st0{fill:#494946;}
</style>
<g>
	<g>
		<path class="st0" d="M256,0C114.5,0,0,114.5,0,256s114.5,256,256,256s256-114.5,256-256S397.5,0,256,0z M256,477.9
			c-122.3,0-221.9-99.5-221.9-221.9S133.7,34.1,256,34.1S477.9,133.7,477.9,256S378.3,477.9,256,477.9z"/>
	</g>
</g>
<g>
	<g>
		<path class="st0" d="M257.4,209.8c-10.2-0.9-18.5,7.4-18.5,17.6v142.8c0,10.2,8.4,18.4,18.5,17.6c8.7-0.7,15.6-8.1,15.6-17v-144
			C273.1,217.9,266.2,210.6,257.4,209.8z"/>
	</g>
</g>
<g>
	<g>
		<path class="st0" d="M256,130.1c-14.1,0-25.6,11.5-25.6,25.6s11.5,25.6,25.6,25.6s25.6-11.5,25.6-25.6S270.1,130.1,256,130.1z"/>
	</g>
</g>
</svg>
